<?xml version="1.0" encoding="UTF-8"?>
<svg id="Capa_1" xmlns="http://www.w3.org/2000/svg" version="1.1" viewBox="0 0 145.21 86.25">
  <!-- Generator: Adobe Illustrator 30.2.1, SVG Export Plug-In . SVG Version: 2.1.1 Build 1)  -->
  <defs>
    <style>
      .st0, .st1 {
        stroke-miterlimit: 10;
      }

      .st0, .st1, .st2, .st3 {
        stroke: #d52d12;
        stroke-width: 4px;
      }

      .st0, .st2 {
        fill: #fff;
      }

      .st1, .st3 {
        fill: #d52d12;
      }

      .st2, .st3 {
        stroke-linejoin: round;
      }
    </style>
  </defs>
  <path class="st1" d="M122.21,20.53c-7.89-5.69-17.58-9.4-27.04-11.54-16.27-3.66-34.84-3.19-50.86,1.48-8.89,2.59-17.76,6.69-24.75,12.8-9.11,7.96-13.79,19.1-7.96,30.61,1.97,3.89,4.83,7.28,8.15,10.16,2.33,2.05,4.87,3.84,7.49,5.39,16.14,9.6,36.94,12.43,55.42,10.77,14.5-1.31,30.69-6.11,42.05-15.5.38-.32.76-.64,1.13-.98,4.01-3.56,7.48-8.09,9.18-13.18,4.1-12.27-3.17-23.05-12.81-30.02ZM127.71,55.66c-1.35,1.88-2.93,3.62-4.68,5.23-6.45,5.94-15.24,10.06-23.25,12.44-6.4,1.92-12.95,3.07-19.7,3.56-16.9,1.25-36.8-1.86-51.18-10.99-2.25-1.42-4.44-3.03-6.44-4.83-2.7-2.43-5.04-5.21-6.72-8.41-5.83-11-1.32-21.79,7.56-29.38,7.69-6.59,17.78-10.73,27.6-13.01,12.96-3.01,26.93-3.28,40-.76,6.82,1.31,13.41,3.36,19.65,6.4,5.71,2.76,10.91,6.28,15.14,11.03,7.61,8.55,8.84,19.27,2.02,28.73Z"/>
  <path class="st0" d="M127.71,55.66c-1.35,1.88-2.93,3.62-4.68,5.23l-32.57-33.51c-2.99-2.85-5.48-5.7-8.71-8.15-6.74-5.19-13.98-5.66-20.83-.33-4.01,3.12-7.24,6.74-10.61,10.56l-13.66,15.44c-4.67,5.48-9.39,10.84-14.18,16.18-2.7-2.43-5.04-5.21-6.72-8.41-5.83-11-1.32-21.79,7.56-29.38,7.69-6.59,17.78-10.73,27.6-13.01,12.96-3.01,26.93-3.28,40-.76,6.82,1.31,13.41,3.36,19.65,6.4,5.71,2.76,10.91,6.28,15.14,11.03,7.61,8.55,8.84,19.27,2.02,28.73Z"/>
  <path class="st3" d="M123.08,60.95l-.05-.06-32.57-33.51c-2.99-2.85-5.48-5.7-8.71-8.15-6.74-5.19-13.98-5.66-20.83-.33-4.01,3.12-7.24,6.74-10.61,10.56l-13.66,15.44c-4.67,5.48-9.39,10.84-14.18,16.18-.9.99-1.79,1.98-2.71,2.98,2.33,2.05,4.87,3.84,7.49,5.39,16.14,9.6,36.94,12.43,55.42,10.77,14.5-1.31,30.69-6.11,42.05-15.5.38-.32.76-.64,1.13-.98l-2.76-2.77ZM64.11,19.65c7.45-4.86,14.75-.66,20.22,4.87,5.84,5.91,11.36,11.92,16.8,18.21,1.79,2.07,3.49,3.87,4.95,6.24-4.6-.23-8.06-3.82-11.9-5.23l-.38,5.94c-.04.59-.15,1.22-.59,1.39-.45.17-1.06-.03-1.49-.36l-7.03-5.48c-.57-.43-1.32-.55-1.92-.41l-.06-.05c-2.1.52-3.7,11.93-7.95,12.52-3.35.47-6.36-7.56-7.69-10.16-.74-1.5-2.23-2.61-3.94-1.62-3.54,2.05-6.69,4.53-9.9,7.21-1.41,1.2-3.89,2.24-5.61,1.25-1.82-1.08-1.51-4.01-.41-5.39.76-.97,1.59-1.63,1.54-2.99l-13.81,7.01c6.72-9.49,20.29-27.14,29.18-32.95Z"/>
  <path class="st2" d="M106.09,48.98c-4.6-.23-8.06-3.82-11.9-5.23l-.38,5.94c-.04.59-.15,1.22-.59,1.39-.45.17-1.06-.03-1.49-.36l-7.03-5.48c-.57-.43-1.32-.55-1.92-.41l-.06-.05c-2.1.52-3.7,11.93-7.95,12.52-3.35.47-6.36-7.56-7.69-10.16-.74-1.5-2.23-2.61-3.94-1.62-3.54,2.05-6.69,4.53-9.9,7.21-1.41,1.2-3.89,2.24-5.61,1.25-1.82-1.08-1.51-4.01-.41-5.39.76-.97,1.59-1.63,1.54-2.99l-13.81,7.01c6.72-9.49,20.29-27.14,29.18-32.95,7.45-4.86,14.75-.66,20.22,4.87,5.84,5.91,11.36,11.92,16.8,18.21,1.79,2.07,3.49,3.87,4.95,6.24Z"/>
</svg>