<?xml version="1.0" encoding="UTF-8"?>
<svg id="Capa_1" xmlns="http://www.w3.org/2000/svg" version="1.1" viewBox="0 0 145.21 86.25">
  <!-- Generator: Adobe Illustrator 30.1.0, SVG Export Plug-In . SVG Version: 2.1.1 Build 136)  -->
  <defs>
    <style>
      .st0 {
        fill: #d52d12;
      }

      .st1 {
        fill: #fff;
      }
    </style>
  </defs>
  <path class="st0" d="M128.12,17.3c-8.82-6.37-19.66-10.53-30.26-12.91C79.65.29,58.88.81,40.94,6.04c-9.95,2.9-19.88,7.48-27.7,14.31C3.05,29.27-2.2,41.74,4.33,54.62c3.76,7.42,10.43,13.2,17.51,17.41,18.06,10.75,41.34,13.9,62.01,12.05,16.24-1.46,34.35-6.82,47.07-17.34,5.01-4.15,9.46-9.62,11.54-15.85,4.59-13.73-3.54-25.79-14.33-33.59ZM134.28,56.62c-7.08,9.84-19.85,16.38-31.27,19.76-7.16,2.16-14.48,3.44-22.05,3.99-18.91,1.4-41.17-2.08-57.28-12.3-5.87-3.72-11.44-8.59-14.72-14.81-6.51-12.32-1.48-24.39,8.46-32.89,8.62-7.37,19.9-12.01,30.89-14.56,14.51-3.37,30.13-3.68,44.77-.86,7.63,1.47,15.01,3.77,21.99,7.16,6.39,3.1,12.22,7.03,16.94,12.34,8.51,9.57,9.89,21.57,2.27,32.16Z"/>
  <path class="st1" d="M134.28,56.62c-7.08,9.84-19.85,16.38-31.27,19.76-7.16,2.16-14.48,3.44-22.05,3.99-18.91,1.4-41.17-2.08-57.28-12.3-5.87-3.72-11.44-8.59-14.72-14.81-6.51-12.32-1.48-24.39,8.46-32.89,8.62-7.37,19.9-12.01,30.89-14.56,14.51-3.37,30.13-3.68,44.77-.86,7.63,1.47,15.01,3.77,21.99,7.16,6.39,3.1,12.22,7.03,16.94,12.34,8.51,9.57,9.89,21.57,2.27,32.16Z"/>
  <g>
    <path d="M34.21,64.2c-1.41,0-2.43-.1-3.62-.59-2.48-1.02-4.27-3.3-4.28-6.09l-.08-18.11c-.02-3.96,2.64-7.4,6.72-7.43l9.84-.08c.37,0,.61-.24.83-.48l3.63-3.91,16.87-18.08c1.03-1.1,2.06-2.01,3.26-2.85,3.17-2.22,7.27-2.28,10.49-.16,1.06.7,1.92,1.44,2.85,2.34l15.23,14.82,8.69,8.32,8.17.11c3.27.04,6.35,2.88,6.36,6.26l.06,19.28c.01,3.69-3.44,6.64-6.98,6.65H34.21ZM33.82,62.5h78.8c2.49-.35,4.86-2.14,4.86-4.75l.02-19.21c0-2.71-2.38-4.6-4.93-4.89h-7.77c-.48-.01-.94-.18-1.31-.54l-17.88-17.32-5.97-5.97c-1.01-1.01-2.01-1.88-3.28-2.54-2.46-1.29-5.27-1.22-7.66.26-1.34.83-2.45,1.89-3.55,3.07l-14.76,15.9-5.71,6.21c-.51.56-1.08.9-1.91.9l-9.55.03c-2.55,0-5.24,2.19-5.24,4.98v18.77c0,1.96,1.16,3.59,2.81,4.45.95.49,1.81.65,3.03.65Z"/>
    <path class="st0" d="M99.7,32.86h-52.08c4.49-4.72,8.63-9.23,12.69-13.99l4.94-5.59c1.22-1.38,2.39-2.69,3.84-3.82,2.48-1.93,5.1-1.76,7.54.12,1.17.89,2.07,1.92,3.15,2.95l11.81,12.15,8.12,8.18ZM77,18.85c.22-.05.49-.01.7.15l2.54,1.98c.16.12.38.19.54.13s.2-.29.21-.5l.14-2.15c1.39.51,2.64,1.81,4.31,1.89-.53-.86-1.14-1.51-1.79-2.26-1.97-2.28-3.97-4.45-6.08-6.59-1.98-2-4.62-3.52-7.32-1.76-3.22,2.1-8.13,8.49-10.56,11.92l5-2.53c.02.49-.28.73-.56,1.08-.4.5-.51,1.56.15,1.95.62.36,1.52-.02,2.03-.45,1.16-.97,2.3-1.87,3.58-2.61.62-.36,1.16.04,1.43.58.48.95,1.57,3.85,2.78,3.68,1.54-.21,2.12-4.34,2.88-4.53Z"/>
    <path d="M41.61,57.01h-8.64c-.14,0-.12-.56,0-.64.56-.34,2.01.17,2.29-1.69l1.58-10.6c.06-.39-.06-.74-.26-.98-.61-.73-2.14.07-1.41-1.13l8.13-.06c2.7-.02,5.41.7,6.73,3.19.67,1.26.8,2.61.66,4.03-.28,2.87-1.89,5.32-4.45,6.67-1.41.75-2.96,1.2-4.61,1.2ZM45.8,52.74c1.32-2.65,1.89-7.29-.95-9.02-1.55-.94-4.34-.97-4.46-.2l-1.66,11.04c-.08.56.05,1.21.64,1.34,2.62.55,5.21-.7,6.43-3.15Z"/>
    <path d="M105.94,55.43l-2.55-5.21c-.32-.26-.9-.19-1.28-.13l-.74,4.74c-.06.37-.03.72.2,1,.5.6,1.53.26,1.56.61.02.23,0,.6-.33.6l-6.89-.04c-.15,0-.08-.37-.03-.47.24-.46,1.83.12,2.1-1.61l1.68-10.83c.08-.5-.15-1.03-.55-1.21-.42-.19-.79-.11-1.27-.24-.07-.05.01-.66.19-.66h8c1.53-.01,3.66.73,4.16,2.33s-.09,3.25-1.38,4.22c-.67.51-1.4.75-2.22,1.09.93,1.83,1.84,3.61,2.9,5.36.5.83,1.27,1.33,2.2,1.41.08.13.04.63-.11.64-1.27.15-2.58.12-3.8-.17-.88-.21-1.48-.64-1.86-1.42ZM106.65,46.61c.25-.95.27-1.97-.38-2.77-.58-.7-1.53-.9-2.42-.78-.41,0-.68.25-.74.64l-.84,5.37c2.07.23,3.82-.29,4.38-2.46Z"/>
    <path d="M96.13,46.09c.25,0,.19.25.19.34-.03.46-1.38-.12-1.61,1.34-.32,2.01-.54,3.97-1.02,5.95-.31,1.28-1.01,2.47-2.22,3.01-2.03.91-6.01.93-6.89-1.57-.33-.93-.25-1.88-.09-2.83l.78-4.63c.05-.28-.02-.58-.19-.76-.47-.5-1.32.02-1.17-.6.03-.11.12-.25.35-.25l5.28.03c.27,1.14-1.49-.06-1.74,1.5l-.91,5.52c-.16.95.15,1.96.92,2.55.82.62,1.91.64,2.9.26.8-.31,1.49-1.11,1.76-2.11.54-2.02.85-4.06,1.07-6.15.14-1.28-1.52-.84-1.54-1.21,0-.17.05-.36.29-.37h3.84Z"/>
    <path d="M56.09,51.9l-.58,3.46c-.07.4.21.84.64.86.97.05,1.98.12,2.94-.15,1.17-.34,1.63-1.89,1.91-1.88.12,0,.48.02.43.24-.18.91-.47,1.73-.78,2.6l-9.19-.02c-.19,0-.1-.33-.08-.42.09-.4,1.41.14,1.64-1.25l1.25-7.64c.05-.29-.03-.58-.18-.75-.4-.45-1.42-.06-1.07-.71.05-.1.21-.15.38-.15h8.39c-.09.86-.22,1.58-.27,2.4-.01.19-.27.14-.41.14-.26,0-.23-1.68-1.75-1.73-.84-.03-1.64-.06-2.48,0l-.66,4.05c4.34.52,2.41-1.74,3.84-1.14-.15,1.03-.42,2-.47,3.08-.01.22-.17.33-.3.33-.62,0-.01-1.19-1.15-1.31-.67-.07-1.31-.07-2.06,0Z"/>
    <path d="M73.67,56.56c-.17-1.07-.08-2.03-.02-2.96.17-.09.45-.11.62-.02.17.81.44,1.64,1.1,2.22.92.81,2.41.93,3.36.11s.67-2.2-.29-2.81l-2.51-1.61c-1.02-.66-1.5-1.81-1.26-3.05.6-3.07,4.82-2.91,7.16-2.07-.05.88-.14,1.69-.26,2.46-.99.54-.27-1.36-1.83-2.03-.73-.31-1.52-.34-2.17.14-.45.34-.67.88-.61,1.44.21,1.99,5.08,2.41,4.61,5.83s-5.37,3.58-7.9,2.33Z"/>
    <path d="M69.91,56.03c1.49-.53,1.69-2.67,2.5-2.04l-.92,3.02h-9.02c-.21,0-.17-.32-.13-.43.1-.27,1.4-.14,1.5-.77l1.32-8.14c.05-.28-.04-.56-.19-.7-.35-.32-.96-.23-1.08-.38-.07-.09-.04-.48.15-.48h5.31c.1.01.1.32.04.39-.35.4-1.51-.16-1.75,1.32l-1.21,7.68c-.19,1.22,3,.71,3.47.54Z"/>
    <path d="M76.48,42.52c-3.15.75-2.27-2.1-3.68-2.32-.16.6-.32,1.24-.3,1.89.18.22.5.11.63.45-.94.08-1.8.08-2.76,0,.16-.38.54-.24.75-.5l.66-3.72c.04-.21.03-.39-.06-.57s-.45-.01-.58-.41c1.29.07,4.05-.43,4.64.62.2.36.16.8-.04,1.2-.24.47-.7.65-1.22.88l.86,1.63c.23.44.66.45,1.11.84ZM74.38,38.03c-.18-.31-1-.52-1.16-.25-.31.62-.21,1.34-.44,1.99.53.16,1.12.07,1.47-.33.29-.33.42-.91.13-1.41Z"/>
    <path d="M68.83,41.94c-.96.78-2.19.9-3.33.69-1.27-.23-2.05-1.31-1.91-2.59.26-2.48,2.89-3.26,4.66-2.66.78.26,1.42.84,1.6,1.66.24,1.05-.14,2.18-1.02,2.9ZM67.7,41.81c.76-.9.92-2.22.58-3.29-.17-.54-.68-.85-1.1-.9-.53-.07-1.09.09-1.44.53-1.01,1.26-1.05,3.83.5,4.18.47.11,1.08-.08,1.45-.52Z"/>
    <path d="M60.22,42.56c-.46,0-2.88.21-2.86-.11.02-.3.68,0,.81-.76l.57-3.32c.04-.21.04-.41-.08-.61-.08-.14-.42,0-.58-.39,1.13.05,4.1-.4,4.67.59.27.47.25,1.06-.07,1.52-.63.92-1.93,1.2-2.93.75-.21.65-.3,1.26-.26,1.89.21.24.57.03.73.45ZM61.11,37.83c-.23-.13-.85-.28-.95,0-.26.68-.18,1.37-.42,2.14.46.11.89.09,1.25-.15.64-.43.75-1.62.12-1.98Z"/>
    <path d="M86.11,40.82c-.57.05-1.24-.15-1.83.06-.39.14-.54.86-.71,1.2.22.29.52.08.63.48-.77.05-1.42.14-2.25-.06.62-.33.97-.53,1.3-1.04l2.52-3.89c.13-.2.66-.57.74-.29l1.21,4.74c.18.24.53.15.65.52-.95.09-1.79.07-2.73.02.15-.36.5-.25.66-.49.03-.43-.12-.78-.19-1.27ZM85.98,40.31l-.35-1.68-1.1,1.72c.52.06.98.1,1.44-.04Z"/>
    <path d="M80.34,42.27c.15.03.25.04.28.09.03.06.02.14,0,.2,0,.02-3.7.24-2.91-.2.21-.12.78-.05.87-.61l.66-3.95c-1.25-.39-1.53.22-2,.84-.49.66-.03-1.23.11-1.45.65.21,1.29.13,1.97.13,1.11,0,2.14.14,3.3-.14,0,.51,0,1.03-.26,1.54-.35-.32-.23-.73-.55-.9-.39-.2-.86-.13-1.31-.08l-.58,3.94c-.04.27.03.5.41.58Z"/>
    <path d="M91.51,42.21c1.94.19,1.94-1.35,2.26-1.21.34.15-.19,1.07-.33,1.62l-4.7-.1c.46-.37.84-.3.91-.82.18-1.23.46-2.45.55-3.71.03-.37-.49-.21-.67-.6.98-.12,1.89-.04,2.87-.04-.18.38-.53.26-.77.5l-.68,3.89c-.03.16.02.31.09.39.09.11.28.07.46.09Z"/>
    <path d="M112.99,43.89c-.89-.27-1.4-1.13-1.24-1.93s.91-1.38,1.79-1.35c1.06.03,1.85.89,1.74,1.86-.12,1.08-1.16,1.77-2.29,1.42ZM114.94,42.27c0-.79-.64-1.43-1.43-1.43s-1.43.64-1.43,1.43.64,1.43,1.43,1.43,1.43-.64,1.43-1.43Z"/>
    <path d="M114.36,43.19c-.47.26-.71-.73-1-.73-.36,0,0,1.03-.51.85l-.08-1.99c.4-.13.89-.15,1.26.09.35.23.19.72-.09.96.05.3.29.44.41.82ZM113.82,41.86c0-.18-.15-.33-.33-.33s-.33.15-.33.33.15.33.33.33.33-.15.33-.33Z"/>
  </g>
</svg>