<?xml version="1.0" encoding="UTF-8"?>
<svg id="Capa_1" xmlns="http://www.w3.org/2000/svg" version="1.1" viewBox="0 0 145.21 86.25">
  <!-- Generator: Adobe Illustrator 30.2.1, SVG Export Plug-In . SVG Version: 2.1.1 Build 1)  -->
  <defs>
    <style>
      .st0 {
        fill: #fff;
      }
    </style>
  </defs>
  <path class="st0" d="M128.13,17.3h0c-8.82-6.37-19.66-10.53-30.26-12.91C79.65.29,58.88.81,40.94,6.04c-9.95,2.9-19.88,7.48-27.7,14.31C3.05,29.27-2.2,41.74,4.33,54.62c3.76,7.42,10.43,13.2,17.51,17.41,18.06,10.75,41.34,13.9,62.01,12.05,16.24-1.46,34.35-6.82,47.07-17.34,5.01-4.15,9.46-9.62,11.54-15.85,4.59-13.73-3.54-25.79-14.33-33.59ZM134.28,56.61h0c-7.08,9.85-19.85,16.39-31.27,19.77-7.16,2.16-14.48,3.44-22.05,3.99-18.91,1.4-41.17-2.08-57.28-12.3-5.87-3.72-11.44-8.59-14.72-14.81-6.51-12.32-1.48-24.39,8.46-32.89,8.62-7.37,19.9-12.01,30.89-14.56,14.51-3.37,30.13-3.68,44.77-.86,7.63,1.47,15.01,3.77,21.99,7.16,6.39,3.1,12.22,7.03,16.94,12.34,8.51,9.57,9.89,21.57,2.27,32.16Z"/>
  <path class="st0" d="M50.03,45.1c-1.32-2.49-4.03-3.21-6.73-3.19l-8.13.06c-.73,1.2.8.4,1.41,1.13.2.24.32.59.26.98l-1.58,10.6c-.28,1.86-1.73,1.35-2.29,1.69-.12.08-.14.64,0,.64h8.66c1.65-.01,3.2-.46,4.61-1.21,2.56-1.35,4.17-3.8,4.45-6.67.14-1.42,0-2.77-.66-4.03ZM45.8,52.74h0c-1.22,2.46-3.81,3.71-6.43,3.16-.59-.13-.72-.78-.64-1.34l1.66-11.04c.12-.77,2.91-.74,4.46.2,2.84,1.73,2.27,6.37.95,9.02Z"/>
  <path class="st0" d="M53.4,46.09h8.39c-.09.86-.22,1.58-.27,2.4-.01.19-.27.14-.41.14-.26,0-.23-1.68-1.75-1.73-.84-.03-1.64-.06-2.48,0l-.66,4.05c4.34.52,2.41-1.74,3.84-1.14-.15,1.03-.42,2-.47,3.08-.01.22-.17.33-.3.33-.62,0-.01-1.19-1.15-1.31-.67-.07-1.3-.07-2.05,0l-.58,3.45c-.07.4.21.84.64.86.97.05,1.98.12,2.94-.15,1.17-.34,1.63-1.88,1.91-1.88.12,0,.48.02.43.24-.18.91-.47,1.73-.78,2.6l-9.19-.02c-.19,0-.1-.33-.08-.42.09-.4,1.41.14,1.64-1.25l1.25-7.64c.05-.29-.03-.58-.18-.75-.4-.45-1.42-.06-1.07-.71.05-.1.21-.15.38-.15Z"/>
  <path class="st0" d="M62.75,37.96c-.57-.99-3.54-.54-4.67-.59.16.39.5.25.58.39.12.2.12.4.08.61l-.57,3.32c-.13.76-.79.46-.81.76-.02.32,2.38.11,2.85.11-.16-.41-.51-.2-.72-.44-.04-.63.05-1.24.26-1.89,1,.45,2.3.17,2.93-.75.32-.46.34-1.05.07-1.52ZM60.99,39.82c-.36.24-.79.26-1.25.15.24-.77.16-1.46.42-2.14.1-.28.72-.13.95,0h0c.63.37.52,1.56-.12,1.99Z"/>
  <path class="st0" d="M69.85,39.04c-.18-.82-.82-1.4-1.6-1.66-1.77-.6-4.4.18-4.66,2.66-.14,1.28.64,2.36,1.91,2.59,1.14.21,2.37.09,3.33-.69.88-.72,1.26-1.85,1.02-2.9ZM67.7,41.81h0c-.37.44-.98.63-1.45.52-1.55-.35-1.51-2.92-.5-4.18.35-.44.91-.6,1.44-.53.42.05.93.36,1.1.9.34,1.07.18,2.39-.58,3.29Z"/>
  <path class="st0" d="M72.41,53.99l-.92,3.02h-9.02c-.21,0-.17-.32-.13-.43.1-.27,1.4-.14,1.5-.77l1.32-8.14c.05-.28-.04-.56-.19-.7-.35-.32-.96-.23-1.08-.38-.07-.09-.04-.48.15-.48h5.31c.1.01.1.32.04.39-.35.4-1.51-.16-1.75,1.32l-1.21,7.68c-.19,1.22,3,.71,3.47.54h.01c1.49-.54,1.69-2.68,2.5-2.05Z"/>
  <path class="st0" d="M75.38,41.67l-.86-1.63c.52-.23.98-.41,1.22-.88.2-.4.24-.84.04-1.2-.59-1.05-3.35-.55-4.64-.62.13.4.49.23.58.41s.1.36.06.57l-.66,3.72c-.21.26-.59.12-.75.5.96.08,1.82.08,2.76,0-.13-.34-.45-.23-.63-.45-.02-.65.14-1.29.3-1.89,1.41.22.53,3.07,3.68,2.32h.01c-.45-.4-.88-.41-1.11-.85ZM74.25,39.44c-.35.4-.94.49-1.47.33.23-.65.13-1.37.44-1.99.16-.27.98-.06,1.16.25.29.5.16,1.08-.13,1.41Z"/>
  <path class="st0" d="M76.96,48.38c.21,1.99,5.08,2.41,4.61,5.83-.47,3.42-5.37,3.58-7.9,2.33-.17-1.06-.08-2.02-.02-2.94.17-.09.45-.11.62-.02.17.81.44,1.64,1.1,2.22.92.81,2.41.93,3.36.11.95-.82.67-2.2-.29-2.81l-2.51-1.61c-1.02-.66-1.5-1.81-1.26-3.05.6-3.07,4.82-2.91,7.16-2.07-.05.88-.14,1.69-.26,2.46-.99.54-.27-1.36-1.83-2.03-.73-.31-1.52-.34-2.17.14-.45.34-.67.88-.61,1.44Z"/>
  <path class="st0" d="M79.92,41.68c-.04.27.03.5.41.58h.01c.15.04.25.05.28.1.03.06.02.14,0,.2,0,.02-3.7.24-2.91-.2.21-.12.78-.05.87-.61l.66-3.95c-1.25-.39-1.53.22-2,.84-.49.66-.03-1.23.11-1.45.65.21,1.29.13,1.97.13,1.11,0,2.14.14,3.3-.14,0,.51,0,1.03-.26,1.54-.35-.32-.23-.73-.55-.9-.39-.2-.86-.13-1.31-.08l-.58,3.94Z"/>
  <path class="st0" d="M87.72,42.02l-1.21-4.74c-.08-.28-.61.09-.74.29l-2.52,3.89c-.33.51-.68.71-1.3,1.04.83.2,1.48.11,2.25.06-.11-.4-.41-.19-.63-.48.17-.34.32-1.06.71-1.2.59-.21,1.26-.01,1.83-.06.07.48.22.83.19,1.25-.16.24-.51.13-.66.49.94.05,1.78.07,2.73-.02-.12-.37-.47-.28-.65-.52ZM85.97,40.31c-.46.14-.92.1-1.44.04l1.1-1.72.35,1.68h-.01Z"/>
  <path class="st0" d="M89.65,41.7c.18-1.23.46-2.45.55-3.71.03-.37-.49-.21-.67-.6.98-.12,1.89-.04,2.87-.04-.18.38-.53.26-.77.5l-.68,3.89c-.03.16.02.31.09.39.09.11.28.07.46.09h0c1.94.18,1.94-1.36,2.26-1.22.34.15-.19,1.07-.33,1.62l-4.7-.1c.46-.37.84-.3.91-.82Z"/>
  <path class="st0" d="M94.71,47.77c-.32,2.01-.54,3.97-1.02,5.95-.31,1.28-1.01,2.47-2.22,3.01-2.03.91-6.01.93-6.89-1.57-.33-.93-.25-1.88-.09-2.83l.78-4.63c.05-.28-.02-.58-.19-.76-.47-.5-1.32.02-1.17-.6.03-.11.12-.25.35-.25l5.28.03c.27,1.14-1.49-.06-1.74,1.5l-.91,5.52c-.16.95.15,1.96.92,2.55.82.62,1.91.64,2.9.26.8-.31,1.49-1.11,1.76-2.11.54-2.02.85-4.06,1.07-6.15.14-1.28-1.52-.84-1.54-1.21,0-.17.05-.36.29-.37h3.84v-.02c.25,0,.19.25.19.34-.03.46-1.38-.12-1.61,1.34Z"/>
  <path class="st0" d="M91.59,24.68l-11.81-12.15c-1.08-1.03-1.98-2.06-3.15-2.95-2.44-1.88-5.06-2.05-7.54-.12-1.45,1.13-2.62,2.44-3.84,3.82l-4.94,5.59c-4.06,4.76-8.2,9.27-12.69,13.99h52.09l-8.12-8.18ZM81.13,18.46l-.14,2.15c-.01.21-.05.44-.21.5-.16.06-.38-.01-.54-.13l-2.54-1.98c-.21-.16-.48-.2-.7-.15l-.02-.02c-.76.19-1.34,4.32-2.88,4.53-1.21.17-2.3-2.73-2.78-3.68-.27-.54-.81-.94-1.43-.58-1.28.74-2.42,1.64-3.58,2.61-.51.43-1.41.81-2.03.45-.66-.39-.55-1.45-.15-1.95.28-.35.58-.59.56-1.08l-5,2.53c2.43-3.43,7.34-9.82,10.56-11.92,2.7-1.76,5.34-.24,7.32,1.76,2.11,2.14,4.11,4.31,6.08,6.59.65.75,1.26,1.4,1.79,2.26-1.67-.08-2.92-1.38-4.31-1.89Z"/>
  <path class="st0" d="M111.69,56.39c-.93-.08-1.7-.58-2.2-1.41-1.06-1.75-1.97-3.53-2.9-5.36.82-.34,1.55-.58,2.22-1.09,1.29-.97,1.88-2.62,1.38-4.22s-2.63-2.34-4.16-2.33h-8c-.18,0-.26.61-.19.66.48.13.85.05,1.27.24.4.18.63.71.55,1.21l-1.68,10.83c-.27,1.73-1.86,1.15-2.1,1.61-.05.1-.12.47.03.47l6.89.04c.33,0,.35-.37.33-.6-.03-.35-1.06-.01-1.56-.61-.23-.28-.26-.63-.2-1l.74-4.74c.38-.06.96-.13,1.28.13l2.55,5.21h-.02c.38.79.98,1.22,1.86,1.43,1.22.29,2.53.32,3.8.17.15-.01.19-.51.11-.64ZM102.27,49.07l.84-5.37c.06-.39.33-.64.74-.64.89-.12,1.84.08,2.42.78.65.8.63,1.82.38,2.77-.56,2.17-2.31,2.69-4.38,2.46Z"/>
  <path class="st0" d="M113.94,42.37c.28-.24.44-.73.09-.96-.37-.24-.86-.22-1.26-.09l.08,1.99c.51.18.15-.85.51-.85.29,0,.53.98.99.73-.12-.38-.36-.52-.41-.82ZM113.49,42.19c-.18,0-.33-.15-.33-.33s.15-.33.33-.33.33.15.33.33-.15.33-.33.33Z"/>
  <path class="st0" d="M113.54,40.61c-.88-.03-1.63.55-1.79,1.35-.16.8.35,1.66,1.24,1.93,1.13.35,2.17-.34,2.29-1.42.11-.97-.68-1.83-1.74-1.86ZM113.51,43.7c-.79,0-1.43-.64-1.43-1.43s.64-1.43,1.43-1.43,1.43.64,1.43,1.43-.64,1.43-1.43,1.43Z"/>
  <path class="st0" d="M119.17,38.27c-.01-3.38-3.09-6.22-6.36-6.26l-8.17-.11-8.69-8.32-15.23-14.82c-.93-.9-1.79-1.64-2.85-2.34-3.22-2.12-7.32-2.06-10.49.16-1.2.84-2.23,1.75-3.26,2.85l-16.87,18.08-3.63,3.91c-.22.24-.46.48-.83.48l-9.84.08c-4.08.03-6.74,3.47-6.72,7.43l.08,18.11c0,2.79,1.8,5.07,4.28,6.09,1.19.49,2.21.59,3.62.59h78.04c3.54-.01,6.99-2.96,6.98-6.65l-.06-19.28ZM117.48,57.75c0,2.61-2.37,4.4-4.86,4.75H33.82c-1.22,0-2.08-.16-3.03-.65-1.65-.86-2.81-2.49-2.81-4.45v-18.77c0-2.79,2.69-4.98,5.24-4.98l9.55-.03c.83,0,1.4-.34,1.91-.9l5.71-6.21,14.76-15.9c1.1-1.18,2.21-2.24,3.55-3.07,2.39-1.48,5.2-1.55,7.66-.26,1.27.66,2.27,1.53,3.28,2.54l5.97,5.97,17.88,17.32c.37.36.83.53,1.31.54h7.77c2.55.29,4.93,2.18,4.93,4.89l-.02,19.21Z"/>
  <g>
    <path class="st0" d="M119.17,38.27c-.01-3.38-3.09-6.22-6.36-6.26l-8.17-.11-8.69-8.32-15.23-14.82c-.93-.9-1.79-1.64-2.85-2.34-3.22-2.12-7.32-2.06-10.49.16-1.2.84-2.23,1.75-3.26,2.85l-16.87,18.08-3.63,3.91c-.22.24-.46.48-.83.48l-9.84.08c-4.08.03-6.74,3.47-6.72,7.43l.08,18.11c0,2.79,1.8,5.07,4.28,6.09,1.19.49,2.21.59,3.62.59h78.04c3.54-.01,6.99-2.96,6.98-6.65l-.06-19.28ZM117.48,57.75c0,2.61-2.37,4.4-4.86,4.75H33.82c-1.22,0-2.08-.16-3.03-.65-1.65-.86-2.81-2.49-2.81-4.45v-18.77c0-2.79,2.69-4.98,5.24-4.98l9.55-.03c.83,0,1.4-.34,1.91-.9l5.71-6.21,14.76-15.9c1.1-1.18,2.21-2.24,3.55-3.07,2.39-1.48,5.2-1.55,7.66-.26,1.27.66,2.27,1.53,3.28,2.54l5.97,5.97,17.88,17.32c.37.36.83.53,1.31.54h7.77c2.55.29,4.93,2.18,4.93,4.89l-.02,19.21Z"/>
    <path class="st0" d="M91.59,24.68l-11.81-12.15c-1.08-1.03-1.98-2.06-3.15-2.95-2.44-1.88-5.06-2.05-7.54-.12-1.45,1.13-2.62,2.44-3.84,3.82l-4.94,5.59c-4.06,4.76-8.2,9.27-12.69,13.99h52.09l-8.12-8.18ZM81.13,18.46l-.14,2.15c-.01.21-.05.44-.21.5-.16.06-.38-.01-.54-.13l-2.54-1.98c-.21-.16-.48-.2-.7-.15l-.02-.02c-.76.19-1.34,4.32-2.88,4.53-1.21.17-2.3-2.73-2.78-3.68-.27-.54-.81-.94-1.43-.58-1.28.74-2.42,1.64-3.58,2.61-.51.43-1.41.81-2.03.45-.66-.39-.55-1.45-.15-1.95.28-.35.58-.59.56-1.08l-5,2.53c2.43-3.43,7.34-9.82,10.56-11.92,2.7-1.76,5.34-.24,7.32,1.76,2.11,2.14,4.11,4.31,6.08,6.59.65.75,1.26,1.4,1.79,2.26-1.67-.08-2.92-1.38-4.31-1.89Z"/>
    <path class="st0" d="M50.03,45.1c-1.32-2.49-4.03-3.21-6.73-3.19l-8.13.06c-.73,1.2.8.4,1.41,1.13.2.24.32.59.26.98l-1.58,10.6c-.28,1.86-1.73,1.35-2.29,1.69-.12.08-.14.64,0,.64h8.66c1.65-.01,3.2-.46,4.61-1.21,2.56-1.35,4.17-3.8,4.45-6.67.14-1.42,0-2.77-.66-4.03ZM45.8,52.74h0c-1.22,2.46-3.81,3.71-6.43,3.16-.59-.13-.72-.78-.64-1.34l1.66-11.04c.12-.77,2.91-.74,4.46.2,2.84,1.73,2.27,6.37.95,9.02Z"/>
    <path class="st0" d="M111.69,56.39c-.93-.08-1.7-.58-2.2-1.41-1.06-1.75-1.97-3.53-2.9-5.36.82-.34,1.55-.58,2.22-1.09,1.29-.97,1.88-2.62,1.38-4.22s-2.63-2.34-4.16-2.33h-8c-.18,0-.26.61-.19.66.48.13.85.05,1.27.24.4.18.63.71.55,1.21l-1.68,10.83c-.27,1.73-1.86,1.15-2.1,1.61-.05.1-.12.47.03.47l6.89.04c.33,0,.35-.37.33-.6-.03-.35-1.06-.01-1.56-.61-.23-.28-.26-.63-.2-1l.74-4.74c.38-.06.96-.13,1.28.13l2.55,5.21h-.02c.38.79.98,1.22,1.86,1.43,1.22.29,2.53.32,3.8.17.15-.01.19-.51.11-.64ZM102.27,49.07l.84-5.37c.06-.39.33-.64.74-.64.89-.12,1.84.08,2.42.78.65.8.63,1.82.38,2.77-.56,2.17-2.31,2.69-4.38,2.46Z"/>
    <path class="st0" d="M96.32,46.43c-.03.46-1.38-.12-1.61,1.34-.32,2.01-.54,3.97-1.02,5.95-.31,1.28-1.01,2.47-2.22,3.01-2.03.91-6.01.93-6.89-1.57-.33-.93-.25-1.88-.09-2.83l.78-4.63c.05-.28-.02-.58-.19-.76-.47-.5-1.32.02-1.17-.6.03-.11.12-.25.35-.25l5.28.03c.27,1.14-1.49-.06-1.74,1.5l-.91,5.52c-.16.95.15,1.96.92,2.55.82.62,1.91.64,2.9.26.8-.31,1.49-1.11,1.76-2.11.54-2.02.85-4.06,1.07-6.15.14-1.28-1.52-.84-1.54-1.21,0-.17.05-.36.29-.37h3.84v-.02c.25,0,.19.25.19.34Z"/>
    <path class="st0" d="M61.79,46.09c-.09.86-.22,1.58-.27,2.4-.01.19-.27.14-.41.14-.26,0-.23-1.68-1.75-1.73-.84-.03-1.64-.06-2.48,0l-.66,4.05c4.34.52,2.41-1.74,3.84-1.14-.15,1.03-.42,2-.47,3.08-.01.22-.17.33-.3.33-.62,0-.01-1.19-1.15-1.31-.67-.07-1.3-.07-2.05,0l-.58,3.45c-.07.4.21.84.64.86.97.05,1.98.12,2.94-.15,1.17-.34,1.63-1.88,1.91-1.88.12,0,.48.02.43.24-.18.91-.47,1.73-.78,2.6l-9.19-.02c-.19,0-.1-.33-.08-.42.09-.4,1.41.14,1.64-1.25l1.25-7.64c.05-.29-.03-.58-.18-.75-.4-.45-1.42-.06-1.07-.71.05-.1.21-.15.38-.15h8.39Z"/>
    <path class="st0" d="M81.57,54.21c-.47,3.42-5.37,3.58-7.9,2.33-.17-1.06-.08-2.02-.02-2.94.17-.09.45-.11.62-.02.17.81.44,1.64,1.1,2.22.92.81,2.41.93,3.36.11.95-.82.67-2.2-.29-2.81l-2.51-1.61c-1.02-.66-1.5-1.81-1.26-3.05.6-3.07,4.82-2.91,7.16-2.07-.05.88-.14,1.69-.26,2.46-.99.54-.27-1.36-1.83-2.03-.73-.31-1.52-.34-2.17.14-.45.34-.67.88-.61,1.44.21,1.99,5.08,2.41,4.61,5.83Z"/>
    <path class="st0" d="M72.41,53.99l-.92,3.02h-9.02c-.21,0-.17-.32-.13-.43.1-.27,1.4-.14,1.5-.77l1.32-8.14c.05-.28-.04-.56-.19-.7-.35-.32-.96-.23-1.08-.38-.07-.09-.04-.48.15-.48h5.31c.1.01.1.32.04.39-.35.4-1.51-.16-1.75,1.32l-1.21,7.68c-.19,1.22,3,.71,3.47.54h.01c1.49-.54,1.69-2.68,2.5-2.05Z"/>
    <path class="st0" d="M75.38,41.67l-.86-1.63c.52-.23.98-.41,1.22-.88.2-.4.24-.84.04-1.2-.59-1.05-3.35-.55-4.64-.62.13.4.49.23.58.41s.1.36.06.57l-.66,3.72c-.21.26-.59.12-.75.5.96.08,1.82.08,2.76,0-.13-.34-.45-.23-.63-.45-.02-.65.14-1.29.3-1.89,1.41.22.53,3.07,3.68,2.32h.01c-.45-.4-.88-.41-1.11-.85ZM74.25,39.44c-.35.4-.94.49-1.47.33.23-.65.13-1.37.44-1.99.16-.27.98-.06,1.16.25.29.5.16,1.08-.13,1.41Z"/>
    <path class="st0" d="M69.85,39.04c-.18-.82-.82-1.4-1.6-1.66-1.77-.6-4.4.18-4.66,2.66-.14,1.28.64,2.36,1.91,2.59,1.14.21,2.37.09,3.33-.69.88-.72,1.26-1.85,1.02-2.9ZM67.7,41.81h0c-.37.44-.98.63-1.45.52-1.55-.35-1.51-2.92-.5-4.18.35-.44.91-.6,1.44-.53.42.05.93.36,1.1.9.34,1.07.18,2.39-.58,3.29Z"/>
    <path class="st0" d="M62.75,37.96c-.57-.99-3.54-.54-4.67-.59.16.39.5.25.58.39.12.2.12.4.08.61l-.57,3.32c-.13.76-.79.46-.81.76-.02.32,2.38.11,2.85.11-.16-.41-.51-.2-.72-.44-.04-.63.05-1.24.26-1.89,1,.45,2.3.17,2.93-.75.32-.46.34-1.05.07-1.52ZM60.99,39.82c-.36.24-.79.26-1.25.15.24-.77.16-1.46.42-2.14.1-.28.72-.13.95,0h0c.63.37.52,1.56-.12,1.99Z"/>
    <path class="st0" d="M87.72,42.02l-1.21-4.74c-.08-.28-.61.09-.74.29l-2.52,3.89c-.33.51-.68.71-1.3,1.04.83.2,1.48.11,2.25.06-.11-.4-.41-.19-.63-.48.17-.34.32-1.06.71-1.2.59-.21,1.26-.01,1.83-.06.07.48.22.83.19,1.25-.16.24-.51.13-.66.49.94.05,1.78.07,2.73-.02-.12-.37-.47-.28-.65-.52ZM85.97,40.31c-.46.14-.92.1-1.44.04l1.1-1.72.35,1.68h-.01Z"/>
    <path class="st0" d="M82.62,37.18c0,.51,0,1.03-.26,1.54-.35-.32-.23-.73-.55-.9-.39-.2-.86-.13-1.31-.08l-.58,3.94c-.04.27.03.5.41.58h.01c.15.04.25.05.28.1.03.06.02.14,0,.2,0,.02-3.7.24-2.91-.2.21-.12.78-.05.87-.61l.66-3.95c-1.25-.39-1.53.22-2,.84-.49.66-.03-1.23.11-1.45.65.21,1.29.13,1.97.13,1.11,0,2.14.14,3.3-.14Z"/>
    <path class="st0" d="M93.44,42.62l-4.7-.1c.46-.37.84-.3.91-.82.18-1.23.46-2.45.55-3.71.03-.37-.49-.21-.67-.6.98-.12,1.89-.04,2.87-.04-.18.38-.53.26-.77.5l-.68,3.89c-.03.16.02.31.09.39.09.11.28.07.46.09h0c1.94.18,1.94-1.36,2.26-1.22.34.15-.19,1.07-.33,1.62Z"/>
    <path class="st0" d="M113.54,40.61c-.88-.03-1.63.55-1.79,1.35-.16.8.35,1.66,1.24,1.93,1.13.35,2.17-.34,2.29-1.42.11-.97-.68-1.83-1.74-1.86ZM113.51,43.7c-.79,0-1.43-.64-1.43-1.43s.64-1.43,1.43-1.43,1.43.64,1.43,1.43-.64,1.43-1.43,1.43Z"/>
    <path class="st0" d="M113.94,42.37c.28-.24.44-.73.09-.96-.37-.24-.86-.22-1.26-.09l.08,1.99c.51.18.15-.85.51-.85.29,0,.53.98.99.73-.12-.38-.36-.52-.41-.82ZM113.49,42.19c-.18,0-.33-.15-.33-.33s.15-.33.33-.33.33.15.33.33-.15.33-.33.33Z"/>
  </g>
</svg>